<svg baseProfile="full" width="296" height="296" xmlns="http://www.w3.org/2000/svg" xmlns:xlink="http://www.w3.org/1999/xlink"><path fill="#fff" d="M0 0h296v296H0z"/><defs><path id="a" d="M0 0h8v8H0z"/></defs><use x="32" y="32" xlink:href="#a"/><use x="32" y="40" xlink:href="#a"/><use x="32" y="48" xlink:href="#a"/><use x="32" y="56" xlink:href="#a"/><use x="32" y="64" xlink:href="#a"/><use x="32" y="72" xlink:href="#a"/><use x="32" y="80" xlink:href="#a"/><use x="32" y="112" xlink:href="#a"/><use x="32" y="120" xlink:href="#a"/><use x="32" y="144" xlink:href="#a"/><use x="32" y="160" xlink:href="#a"/><use x="32" y="168" xlink:href="#a"/><use x="32" y="184" xlink:href="#a"/><use x="32" y="208" xlink:href="#a"/><use x="32" y="216" xlink:href="#a"/><use x="32" y="224" xlink:href="#a"/><use x="32" y="232" xlink:href="#a"/><use x="32" y="240" xlink:href="#a"/><use x="32" y="248" xlink:href="#a"/><use x="32" y="256" xlink:href="#a"/><use x="40" y="32" xlink:href="#a"/><use x="40" y="80" xlink:href="#a"/><use x="40" y="96" xlink:href="#a"/><use x="40" y="104" xlink:href="#a"/><use x="40" y="120" xlink:href="#a"/><use x="40" y="128" xlink:href="#a"/><use x="40" y="136" xlink:href="#a"/><use x="40" y="144" xlink:href="#a"/><use x="40" y="152" xlink:href="#a"/><use x="40" y="168" xlink:href="#a"/><use x="40" y="176" xlink:href="#a"/><use x="40" y="184" xlink:href="#a"/><use x="40" y="192" xlink:href="#a"/><use x="40" y="208" xlink:href="#a"/><use x="40" y="256" xlink:href="#a"/><use x="48" y="32" xlink:href="#a"/><use x="48" y="48" xlink:href="#a"/><use x="48" y="56" xlink:href="#a"/><use x="48" y="64" xlink:href="#a"/><use x="48" y="80" xlink:href="#a"/><use x="48" y="120" xlink:href="#a"/><use x="48" y="136" xlink:href="#a"/><use x="48" y="144" xlink:href="#a"/><use x="48" y="160" xlink:href="#a"/><use x="48" y="192" xlink:href="#a"/><use x="48" y="208" xlink:href="#a"/><use x="48" y="224" xlink:href="#a"/><use x="48" y="232" xlink:href="#a"/><use x="48" y="240" xlink:href="#a"/><use x="48" y="256" xlink:href="#a"/><use x="56" y="32" xlink:href="#a"/><use x="56" y="48" xlink:href="#a"/><use x="56" y="56" xlink:href="#a"/><use x="56" y="64" xlink:href="#a"/><use x="56" y="80" xlink:href="#a"/><use x="56" y="96" xlink:href="#a"/><use x="56" y="120" xlink:href="#a"/><use x="56" y="128" xlink:href="#a"/><use x="56" y="136" xlink:href="#a"/><use x="56" y="144" xlink:href="#a"/><use x="56" y="160" xlink:href="#a"/><use x="56" y="168" xlink:href="#a"/><use x="56" y="176" xlink:href="#a"/><use x="56" y="184" xlink:href="#a"/><use x="56" y="192" xlink:href="#a"/><use x="56" y="208" xlink:href="#a"/><use x="56" y="224" xlink:href="#a"/><use x="56" y="232" xlink:href="#a"/><use x="56" y="240" xlink:href="#a"/><use x="56" y="256" xlink:href="#a"/><use x="64" y="32" xlink:href="#a"/><use x="64" y="48" xlink:href="#a"/><use x="64" y="56" xlink:href="#a"/><use x="64" y="64" xlink:href="#a"/><use x="64" y="80" xlink:href="#a"/><use x="64" y="112" xlink:href="#a"/><use x="64" y="120" xlink:href="#a"/><use x="64" y="136" xlink:href="#a"/><use x="64" y="144" xlink:href="#a"/><use x="64" y="152" xlink:href="#a"/><use x="64" y="160" xlink:href="#a"/><use x="64" y="176" xlink:href="#a"/><use x="64" y="208" xlink:href="#a"/><use x="64" y="224" xlink:href="#a"/><use x="64" y="232" xlink:href="#a"/><use x="64" y="240" xlink:href="#a"/><use x="64" y="256" xlink:href="#a"/><use x="72" y="32" xlink:href="#a"/><use x="72" y="80" xlink:href="#a"/><use x="72" y="96" xlink:href="#a"/><use x="72" y="120" xlink:href="#a"/><use x="72" y="128" xlink:href="#a"/><use x="72" y="152" xlink:href="#a"/><use x="72" y="160" xlink:href="#a"/><use x="72" y="168" xlink:href="#a"/><use x="72" y="208" xlink:href="#a"/><use x="72" y="256" xlink:href="#a"/><use x="80" y="32" xlink:href="#a"/><use x="80" y="40" xlink:href="#a"/><use x="80" y="48" xlink:href="#a"/><use x="80" y="56" xlink:href="#a"/><use x="80" y="64" xlink:href="#a"/><use x="80" y="72" xlink:href="#a"/><use x="80" y="80" xlink:href="#a"/><use x="80" y="96" xlink:href="#a"/><use x="80" y="112" xlink:href="#a"/><use x="80" y="128" xlink:href="#a"/><use x="80" y="144" xlink:href="#a"/><use x="80" y="160" xlink:href="#a"/><use x="80" y="176" xlink:href="#a"/><use x="80" y="192" xlink:href="#a"/><use x="80" y="208" xlink:href="#a"/><use x="80" y="216" xlink:href="#a"/><use x="80" y="224" xlink:href="#a"/><use x="80" y="232" xlink:href="#a"/><use x="80" y="240" xlink:href="#a"/><use x="80" y="248" xlink:href="#a"/><use x="80" y="256" xlink:href="#a"/><use x="88" y="96" xlink:href="#a"/><use x="88" y="104" xlink:href="#a"/><use x="88" y="112" xlink:href="#a"/><use x="88" y="120" xlink:href="#a"/><use x="88" y="160" xlink:href="#a"/><use x="88" y="168" xlink:href="#a"/><use x="96" y="32" xlink:href="#a"/><use x="96" y="48" xlink:href="#a"/><use x="96" y="56" xlink:href="#a"/><use x="96" y="72" xlink:href="#a"/><use x="96" y="80" xlink:href="#a"/><use x="96" y="88" xlink:href="#a"/><use x="96" y="96" xlink:href="#a"/><use x="96" y="104" xlink:href="#a"/><use x="96" y="120" xlink:href="#a"/><use x="96" y="128" xlink:href="#a"/><use x="96" y="136" xlink:href="#a"/><use x="96" y="168" xlink:href="#a"/><use x="96" y="176" xlink:href="#a"/><use x="96" y="184" xlink:href="#a"/><use x="96" y="200" xlink:href="#a"/><use x="96" y="208" xlink:href="#a"/><use x="96" y="216" xlink:href="#a"/><use x="96" y="232" xlink:href="#a"/><use x="96" y="248" xlink:href="#a"/><use x="104" y="48" xlink:href="#a"/><use x="104" y="72" xlink:href="#a"/><use x="104" y="96" xlink:href="#a"/><use x="104" y="128" xlink:href="#a"/><use x="104" y="136" xlink:href="#a"/><use x="104" y="144" xlink:href="#a"/><use x="104" y="176" xlink:href="#a"/><use x="104" y="184" xlink:href="#a"/><use x="104" y="192" xlink:href="#a"/><use x="104" y="216" xlink:href="#a"/><use x="104" y="248" xlink:href="#a"/><use x="104" y="256" xlink:href="#a"/><use x="112" y="80" xlink:href="#a"/><use x="112" y="128" xlink:href="#a"/><use x="112" y="136" xlink:href="#a"/><use x="112" y="144" xlink:href="#a"/><use x="112" y="152" xlink:href="#a"/><use x="112" y="168" xlink:href="#a"/><use x="112" y="184" xlink:href="#a"/><use x="112" y="200" xlink:href="#a"/><use x="112" y="208" xlink:href="#a"/><use x="112" y="232" xlink:href="#a"/><use x="112" y="248" xlink:href="#a"/><use x="112" y="256" xlink:href="#a"/><use x="120" y="56" xlink:href="#a"/><use x="120" y="72" xlink:href="#a"/><use x="120" y="88" xlink:href="#a"/><use x="120" y="96" xlink:href="#a"/><use x="120" y="104" xlink:href="#a"/><use x="120" y="112" xlink:href="#a"/><use x="120" y="120" xlink:href="#a"/><use x="120" y="128" xlink:href="#a"/><use x="120" y="136" xlink:href="#a"/><use x="120" y="144" xlink:href="#a"/><use x="120" y="152" xlink:href="#a"/><use x="120" y="168" xlink:href="#a"/><use x="120" y="200" xlink:href="#a"/><use x="120" y="224" xlink:href="#a"/><use x="120" y="232" xlink:href="#a"/><use x="120" y="240" xlink:href="#a"/><use x="128" y="32" xlink:href="#a"/><use x="128" y="40" xlink:href="#a"/><use x="128" y="48" xlink:href="#a"/><use x="128" y="56" xlink:href="#a"/><use x="128" y="72" xlink:href="#a"/><use x="128" y="80" xlink:href="#a"/><use x="128" y="88" xlink:href="#a"/><use x="128" y="112" xlink:href="#a"/><use x="128" y="120" xlink:href="#a"/><use x="128" y="152" xlink:href="#a"/><use x="128" y="168" xlink:href="#a"/><use x="128" y="184" xlink:href="#a"/><use x="128" y="192" xlink:href="#a"/><use x="128" y="216" xlink:href="#a"/><use x="128" y="232" xlink:href="#a"/><use x="128" y="240" xlink:href="#a"/><use x="128" y="248" xlink:href="#a"/><use x="136" y="40" xlink:href="#a"/><use x="136" y="56" xlink:href="#a"/><use x="136" y="72" xlink:href="#a"/><use x="136" y="112" xlink:href="#a"/><use x="136" y="136" xlink:href="#a"/><use x="136" y="152" xlink:href="#a"/><use x="136" y="160" xlink:href="#a"/><use x="136" y="168" xlink:href="#a"/><use x="136" y="176" xlink:href="#a"/><use x="136" y="192" xlink:href="#a"/><use x="136" y="200" xlink:href="#a"/><use x="136" y="256" xlink:href="#a"/><use x="144" y="32" xlink:href="#a"/><use x="144" y="48" xlink:href="#a"/><use x="144" y="56" xlink:href="#a"/><use x="144" y="80" xlink:href="#a"/><use x="144" y="88" xlink:href="#a"/><use x="144" y="128" xlink:href="#a"/><use x="144" y="152" xlink:href="#a"/><use x="144" y="160" xlink:href="#a"/><use x="144" y="168" xlink:href="#a"/><use x="144" y="208" xlink:href="#a"/><use x="144" y="224" xlink:href="#a"/><use x="144" y="232" xlink:href="#a"/><use x="152" y="32" xlink:href="#a"/><use x="152" y="40" xlink:href="#a"/><use x="152" y="56" xlink:href="#a"/><use x="152" y="72" xlink:href="#a"/><use x="152" y="88" xlink:href="#a"/><use x="152" y="104" xlink:href="#a"/><use x="152" y="112" xlink:href="#a"/><use x="152" y="120" xlink:href="#a"/><use x="152" y="144" xlink:href="#a"/><use x="152" y="152" xlink:href="#a"/><use x="152" y="168" xlink:href="#a"/><use x="152" y="176" xlink:href="#a"/><use x="152" y="192" xlink:href="#a"/><use x="152" y="232" xlink:href="#a"/><use x="152" y="248" xlink:href="#a"/><use x="160" y="40" xlink:href="#a"/><use x="160" y="56" xlink:href="#a"/><use x="160" y="72" xlink:href="#a"/><use x="160" y="80" xlink:href="#a"/><use x="160" y="96" xlink:href="#a"/><use x="160" y="120" xlink:href="#a"/><use x="160" y="128" xlink:href="#a"/><use x="160" y="144" xlink:href="#a"/><use x="160" y="152" xlink:href="#a"/><use x="160" y="168" xlink:href="#a"/><use x="160" y="176" xlink:href="#a"/><use x="160" y="200" xlink:href="#a"/><use x="160" y="208" xlink:href="#a"/><use x="160" y="232" xlink:href="#a"/><use x="168" y="32" xlink:href="#a"/><use x="168" y="48" xlink:href="#a"/><use x="168" y="64" xlink:href="#a"/><use x="168" y="72" xlink:href="#a"/><use x="168" y="96" xlink:href="#a"/><use x="168" y="104" xlink:href="#a"/><use x="168" y="128" xlink:href="#a"/><use x="168" y="136" xlink:href="#a"/><use x="168" y="144" xlink:href="#a"/><use x="168" y="152" xlink:href="#a"/><use x="168" y="176" xlink:href="#a"/><use x="168" y="184" xlink:href="#a"/><use x="168" y="208" xlink:href="#a"/><use x="168" y="216" xlink:href="#a"/><use x="168" y="240" xlink:href="#a"/><use x="168" y="248" xlink:href="#a"/><use x="168" y="256" xlink:href="#a"/><use x="176" y="32" xlink:href="#a"/><use x="176" y="40" xlink:href="#a"/><use x="176" y="48" xlink:href="#a"/><use x="176" y="56" xlink:href="#a"/><use x="176" y="64" xlink:href="#a"/><use x="176" y="72" xlink:href="#a"/><use x="176" y="80" xlink:href="#a"/><use x="176" y="120" xlink:href="#a"/><use x="176" y="136" xlink:href="#a"/><use x="176" y="144" xlink:href="#a"/><use x="176" y="152" xlink:href="#a"/><use x="176" y="160" xlink:href="#a"/><use x="176" y="168" xlink:href="#a"/><use x="176" y="176" xlink:href="#a"/><use x="176" y="240" xlink:href="#a"/><use x="176" y="248" xlink:href="#a"/><use x="184" y="48" xlink:href="#a"/><use x="184" y="72" xlink:href="#a"/><use x="184" y="88" xlink:href="#a"/><use x="184" y="112" xlink:href="#a"/><use x="184" y="136" xlink:href="#a"/><use x="184" y="160" xlink:href="#a"/><use x="184" y="184" xlink:href="#a"/><use x="184" y="192" xlink:href="#a"/><use x="184" y="232" xlink:href="#a"/><use x="184" y="240" xlink:href="#a"/><use x="184" y="248" xlink:href="#a"/><use x="192" y="32" xlink:href="#a"/><use x="192" y="40" xlink:href="#a"/><use x="192" y="48" xlink:href="#a"/><use x="192" y="64" xlink:href="#a"/><use x="192" y="80" xlink:href="#a"/><use x="192" y="88" xlink:href="#a"/><use x="192" y="104" xlink:href="#a"/><use x="192" y="112" xlink:href="#a"/><use x="192" y="136" xlink:href="#a"/><use x="192" y="144" xlink:href="#a"/><use x="192" y="152" xlink:href="#a"/><use x="192" y="160" xlink:href="#a"/><use x="192" y="176" xlink:href="#a"/><use x="192" y="184" xlink:href="#a"/><use x="192" y="192" xlink:href="#a"/><use x="192" y="200" xlink:href="#a"/><use x="192" y="208" xlink:href="#a"/><use x="192" y="216" xlink:href="#a"/><use x="192" y="224" xlink:href="#a"/><use x="192" y="232" xlink:href="#a"/><use x="192" y="248" xlink:href="#a"/><use x="192" y="256" xlink:href="#a"/><use x="200" y="96" xlink:href="#a"/><use x="200" y="104" xlink:href="#a"/><use x="200" y="112" xlink:href="#a"/><use x="200" y="136" xlink:href="#a"/><use x="200" y="144" xlink:href="#a"/><use x="200" y="152" xlink:href="#a"/><use x="200" y="160" xlink:href="#a"/><use x="200" y="168" xlink:href="#a"/><use x="200" y="176" xlink:href="#a"/><use x="200" y="192" xlink:href="#a"/><use x="200" y="224" xlink:href="#a"/><use x="200" y="240" xlink:href="#a"/><use x="200" y="248" xlink:href="#a"/><use x="200" y="256" xlink:href="#a"/><use x="208" y="32" xlink:href="#a"/><use x="208" y="40" xlink:href="#a"/><use x="208" y="48" xlink:href="#a"/><use x="208" y="56" xlink:href="#a"/><use x="208" y="64" xlink:href="#a"/><use x="208" y="72" xlink:href="#a"/><use x="208" y="80" xlink:href="#a"/><use x="208" y="96" xlink:href="#a"/><use x="208" y="104" xlink:href="#a"/><use x="208" y="112" xlink:href="#a"/><use x="208" y="120" xlink:href="#a"/><use x="208" y="128" xlink:href="#a"/><use x="208" y="152" xlink:href="#a"/><use x="208" y="168" xlink:href="#a"/><use x="208" y="192" xlink:href="#a"/><use x="208" y="208" xlink:href="#a"/><use x="208" y="224" xlink:href="#a"/><use x="208" y="232" xlink:href="#a"/><use x="208" y="248" xlink:href="#a"/><use x="216" y="32" xlink:href="#a"/><use x="216" y="80" xlink:href="#a"/><use x="216" y="96" xlink:href="#a"/><use x="216" y="104" xlink:href="#a"/><use x="216" y="112" xlink:href="#a"/><use x="216" y="136" xlink:href="#a"/><use x="216" y="144" xlink:href="#a"/><use x="216" y="152" xlink:href="#a"/><use x="216" y="160" xlink:href="#a"/><use x="216" y="168" xlink:href="#a"/><use x="216" y="192" xlink:href="#a"/><use x="216" y="224" xlink:href="#a"/><use x="216" y="240" xlink:href="#a"/><use x="216" y="248" xlink:href="#a"/><use x="224" y="32" xlink:href="#a"/><use x="224" y="48" xlink:href="#a"/><use x="224" y="56" xlink:href="#a"/><use x="224" y="64" xlink:href="#a"/><use x="224" y="80" xlink:href="#a"/><use x="224" y="152" xlink:href="#a"/><use x="224" y="176" xlink:href="#a"/><use x="224" y="192" xlink:href="#a"/><use x="224" y="200" xlink:href="#a"/><use x="224" y="208" xlink:href="#a"/><use x="224" y="216" xlink:href="#a"/><use x="224" y="224" xlink:href="#a"/><use x="224" y="232" xlink:href="#a"/><use x="224" y="240" xlink:href="#a"/><use x="224" y="256" xlink:href="#a"/><use x="232" y="32" xlink:href="#a"/><use x="232" y="48" xlink:href="#a"/><use x="232" y="56" xlink:href="#a"/><use x="232" y="64" xlink:href="#a"/><use x="232" y="80" xlink:href="#a"/><use x="232" y="96" xlink:href="#a"/><use x="232" y="104" xlink:href="#a"/><use x="232" y="112" xlink:href="#a"/><use x="232" y="128" xlink:href="#a"/><use x="232" y="136" xlink:href="#a"/><use x="232" y="168" xlink:href="#a"/><use x="232" y="184" xlink:href="#a"/><use x="232" y="208" xlink:href="#a"/><use x="232" y="224" xlink:href="#a"/><use x="232" y="232" xlink:href="#a"/><use x="232" y="240" xlink:href="#a"/><use x="240" y="32" xlink:href="#a"/><use x="240" y="48" xlink:href="#a"/><use x="240" y="56" xlink:href="#a"/><use x="240" y="64" xlink:href="#a"/><use x="240" y="80" xlink:href="#a"/><use x="240" y="96" xlink:href="#a"/><use x="240" y="120" xlink:href="#a"/><use x="240" y="168" xlink:href="#a"/><use x="240" y="192" xlink:href="#a"/><use x="240" y="208" xlink:href="#a"/><use x="240" y="216" xlink:href="#a"/><use x="248" y="32" xlink:href="#a"/><use x="248" y="80" xlink:href="#a"/><use x="248" y="112" xlink:href="#a"/><use x="248" y="120" xlink:href="#a"/><use x="248" y="144" xlink:href="#a"/><use x="248" y="160" xlink:href="#a"/><use x="248" y="168" xlink:href="#a"/><use x="248" y="176" xlink:href="#a"/><use x="248" y="200" xlink:href="#a"/><use x="248" y="208" xlink:href="#a"/><use x="248" y="216" xlink:href="#a"/><use x="248" y="248" xlink:href="#a"/><use x="248" y="256" xlink:href="#a"/><use x="256" y="32" xlink:href="#a"/><use x="256" y="40" xlink:href="#a"/><use x="256" y="48" xlink:href="#a"/><use x="256" y="56" xlink:href="#a"/><use x="256" y="64" xlink:href="#a"/><use x="256" y="72" xlink:href="#a"/><use x="256" y="80" xlink:href="#a"/><use x="256" y="96" xlink:href="#a"/><use x="256" y="104" xlink:href="#a"/><use x="256" y="144" xlink:href="#a"/><use x="256" y="168" xlink:href="#a"/><use x="256" y="176" xlink:href="#a"/><use x="256" y="200" xlink:href="#a"/><use x="256" y="224" xlink:href="#a"/><use x="256" y="232" xlink:href="#a"/><use x="256" y="240" xlink:href="#a"/></svg>