<?xml version="1.0" encoding="utf-8"?><!DOCTYPE svg PUBLIC "-//W3C//DTD SVG 1.1//EN" "http://www.w3.org/Graphics/SVG/1.1/DTD/svg11.dtd"><svg xmlns="http://www.w3.org/2000/svg" width="231px" height="231px"><path fill="#FFF" d="M0 0h231v231H0z"/><path d="M70 14h7v7h-7zM77 14h7v7h-7zM84 14h7v7h-7zM91 14h7v7h-7zM105 14h7v7h-7zM112 14h7v7h-7zM119 14h7v7h-7zM147 14h7v7h-7zM154 14h7v7h-7zM70 21h7v7h-7zM84 21h7v7h-7zM98 21h7v7h-7zM105 21h7v7h-7zM126 21h7v7h-7zM154 21h7v7h-7zM84 28h7v7h-7zM91 28h7v7h-7zM126 28h7v7h-7zM140 28h7v7h-7zM147 28h7v7h-7zM154 28h7v7h-7zM70 35h7v7h-7zM98 35h7v7h-7zM112 35h7v7h-7zM119 35h7v7h-7zM133 35h7v7h-7zM140 35h7v7h-7zM154 35h7v7h-7zM77 42h7v7h-7zM112 42h7v7h-7zM126 42h7v7h-7zM147 42h7v7h-7zM98 49h7v7h-7zM105 49h7v7h-7zM119 49h7v7h-7zM126 49h7v7h-7zM133 49h7v7h-7zM140 49h7v7h-7zM147 49h7v7h-7zM154 49h7v7h-7zM70 56h7v7h-7zM84 56h7v7h-7zM98 56h7v7h-7zM112 56h7v7h-7zM126 56h7v7h-7zM140 56h7v7h-7zM154 56h7v7h-7zM70 63h7v7h-7zM77 63h7v7h-7zM91 63h7v7h-7zM119 63h7v7h-7zM126 63h7v7h-7zM133 63h7v7h-7zM14 70h7v7h-7zM28 70h7v7h-7zM35 70h7v7h-7zM49 70h7v7h-7zM56 70h7v7h-7zM63 70h7v7h-7zM84 70h7v7h-7zM91 70h7v7h-7zM105 70h7v7h-7zM119 70h7v7h-7zM133 70h7v7h-7zM140 70h7v7h-7zM147 70h7v7h-7zM168 70h7v7h-7zM189 70h7v7h-7zM203 70h7v7h-7zM210 70h7v7h-7zM14 77h7v7h-7zM21 77h7v7h-7zM49 77h7v7h-7zM63 77h7v7h-7zM84 77h7v7h-7zM105 77h7v7h-7zM112 77h7v7h-7zM119 77h7v7h-7zM133 77h7v7h-7zM140 77h7v7h-7zM147 77h7v7h-7zM154 77h7v7h-7zM161 77h7v7h-7zM168 77h7v7h-7zM175 77h7v7h-7zM182 77h7v7h-7zM210 77h7v7h-7zM21 84h7v7h-7zM28 84h7v7h-7zM35 84h7v7h-7zM42 84h7v7h-7zM56 84h7v7h-7zM63 84h7v7h-7zM70 84h7v7h-7zM77 84h7v7h-7zM84 84h7v7h-7zM105 84h7v7h-7zM126 84h7v7h-7zM133 84h7v7h-7zM154 84h7v7h-7zM161 84h7v7h-7zM175 84h7v7h-7zM182 84h7v7h-7zM196 84h7v7h-7zM203 84h7v7h-7zM14 91h7v7h-7zM35 91h7v7h-7zM42 91h7v7h-7zM84 91h7v7h-7zM91 91h7v7h-7zM126 91h7v7h-7zM140 91h7v7h-7zM161 91h7v7h-7zM168 91h7v7h-7zM175 91h7v7h-7zM182 91h7v7h-7zM210 91h7v7h-7zM14 98h7v7h-7zM21 98h7v7h-7zM28 98h7v7h-7zM42 98h7v7h-7zM56 98h7v7h-7zM63 98h7v7h-7zM91 98h7v7h-7zM112 98h7v7h-7zM119 98h7v7h-7zM133 98h7v7h-7zM154 98h7v7h-7zM189 98h7v7h-7zM196 98h7v7h-7zM14 105h7v7h-7zM21 105h7v7h-7zM28 105h7v7h-7zM35 105h7v7h-7zM42 105h7v7h-7zM49 105h7v7h-7zM91 105h7v7h-7zM112 105h7v7h-7zM126 105h7v7h-7zM147 105h7v7h-7zM161 105h7v7h-7zM168 105h7v7h-7zM175 105h7v7h-7zM196 105h7v7h-7zM203 105h7v7h-7zM210 105h7v7h-7zM28 112h7v7h-7zM49 112h7v7h-7zM56 112h7v7h-7zM63 112h7v7h-7zM77 112h7v7h-7zM84 112h7v7h-7zM98 112h7v7h-7zM105 112h7v7h-7zM119 112h7v7h-7zM126 112h7v7h-7zM133 112h7v7h-7zM140 112h7v7h-7zM147 112h7v7h-7zM168 112h7v7h-7zM175 112h7v7h-7zM182 112h7v7h-7zM196 112h7v7h-7zM203 112h7v7h-7zM210 112h7v7h-7zM14 119h7v7h-7zM28 119h7v7h-7zM49 119h7v7h-7zM63 119h7v7h-7zM70 119h7v7h-7zM84 119h7v7h-7zM91 119h7v7h-7zM98 119h7v7h-7zM112 119h7v7h-7zM126 119h7v7h-7zM140 119h7v7h-7zM147 119h7v7h-7zM161 119h7v7h-7zM168 119h7v7h-7zM175 119h7v7h-7zM182 119h7v7h-7zM203 119h7v7h-7zM14 126h7v7h-7zM28 126h7v7h-7zM56 126h7v7h-7zM77 126h7v7h-7zM91 126h7v7h-7zM112 126h7v7h-7zM119 126h7v7h-7zM126 126h7v7h-7zM140 126h7v7h-7zM161 126h7v7h-7zM182 126h7v7h-7zM189 126h7v7h-7zM203 126h7v7h-7zM49 133h7v7h-7zM63 133h7v7h-7zM77 133h7v7h-7zM98 133h7v7h-7zM112 133h7v7h-7zM126 133h7v7h-7zM154 133h7v7h-7zM175 133h7v7h-7zM189 133h7v7h-7zM196 133h7v7h-7zM203 133h7v7h-7zM14 140h7v7h-7zM28 140h7v7h-7zM49 140h7v7h-7zM56 140h7v7h-7zM91 140h7v7h-7zM105 140h7v7h-7zM112 140h7v7h-7zM119 140h7v7h-7zM126 140h7v7h-7zM133 140h7v7h-7zM154 140h7v7h-7zM161 140h7v7h-7zM168 140h7v7h-7zM175 140h7v7h-7zM196 140h7v7h-7zM35 147h7v7h-7zM70 147h7v7h-7zM84 147h7v7h-7zM98 147h7v7h-7zM105 147h7v7h-7zM112 147h7v7h-7zM133 147h7v7h-7zM161 147h7v7h-7zM196 147h7v7h-7zM21 154h7v7h-7zM28 154h7v7h-7zM35 154h7v7h-7zM42 154h7v7h-7zM56 154h7v7h-7zM63 154h7v7h-7zM77 154h7v7h-7zM98 154h7v7h-7zM105 154h7v7h-7zM112 154h7v7h-7zM126 154h7v7h-7zM133 154h7v7h-7zM140 154h7v7h-7zM147 154h7v7h-7zM154 154h7v7h-7zM161 154h7v7h-7zM168 154h7v7h-7zM175 154h7v7h-7zM182 154h7v7h-7zM189 154h7v7h-7zM196 154h7v7h-7zM70 161h7v7h-7zM98 161h7v7h-7zM119 161h7v7h-7zM126 161h7v7h-7zM133 161h7v7h-7zM140 161h7v7h-7zM154 161h7v7h-7zM182 161h7v7h-7zM189 161h7v7h-7zM196 161h7v7h-7zM203 161h7v7h-7zM210 161h7v7h-7zM70 168h7v7h-7zM77 168h7v7h-7zM84 168h7v7h-7zM91 168h7v7h-7zM98 168h7v7h-7zM112 168h7v7h-7zM119 168h7v7h-7zM140 168h7v7h-7zM147 168h7v7h-7zM154 168h7v7h-7zM168 168h7v7h-7zM182 168h7v7h-7zM189 168h7v7h-7zM203 168h7v7h-7zM70 175h7v7h-7zM98 175h7v7h-7zM105 175h7v7h-7zM112 175h7v7h-7zM119 175h7v7h-7zM140 175h7v7h-7zM154 175h7v7h-7zM182 175h7v7h-7zM189 175h7v7h-7zM210 175h7v7h-7zM77 182h7v7h-7zM84 182h7v7h-7zM126 182h7v7h-7zM140 182h7v7h-7zM154 182h7v7h-7zM161 182h7v7h-7zM168 182h7v7h-7zM175 182h7v7h-7zM182 182h7v7h-7zM196 182h7v7h-7zM210 182h7v7h-7zM70 189h7v7h-7zM77 189h7v7h-7zM84 189h7v7h-7zM105 189h7v7h-7zM154 189h7v7h-7zM161 189h7v7h-7zM182 189h7v7h-7zM189 189h7v7h-7zM203 189h7v7h-7zM70 196h7v7h-7zM77 196h7v7h-7zM84 196h7v7h-7zM98 196h7v7h-7zM105 196h7v7h-7zM112 196h7v7h-7zM133 196h7v7h-7zM140 196h7v7h-7zM147 196h7v7h-7zM175 196h7v7h-7zM196 196h7v7h-7zM210 196h7v7h-7zM77 203h7v7h-7zM91 203h7v7h-7zM112 203h7v7h-7zM119 203h7v7h-7zM133 203h7v7h-7zM140 203h7v7h-7zM147 203h7v7h-7zM154 203h7v7h-7zM161 203h7v7h-7zM175 203h7v7h-7zM189 203h7v7h-7zM203 203h7v7h-7zM70 210h7v7h-7zM77 210h7v7h-7zM91 210h7v7h-7zM98 210h7v7h-7zM105 210h7v7h-7zM112 210h7v7h-7zM133 210h7v7h-7zM140 210h7v7h-7zM147 210h7v7h-7zM154 210h7v7h-7zM161 210h7v7h-7zM168 210h7v7h-7zM189 210h7v7h-7zM203 210h7v7h-7z"/><path fill="none" d="M21 21h35v35H21z"/><path d="M56 14H14v49h49V14h-7zm0 42H21V21h35v35z"/><path fill="none" d="M175 21h35v35h-35z"/><path d="M210 14h-42v49h49V14h-7zm0 42h-35V21h35v35z"/><path fill="none" d="M21 175h35v35H21z"/><path d="M56 168H14v49h49v-49h-7zm0 42H21v-35h35v35z"/><g><path d="M28 28h21v21H28z"/></g><g><path d="M182 28h21v21h-21z"/></g><g><path d="M28 182h21v21H28z"/></g></svg>